<?xml version="1.0" encoding="UTF-8" ?>
<!DOCTYPE svg PUBLIC "-//W3C//DTD SVG 1.1//EN" "http://www.w3.org/Graphics/SVG/1.1/DTD/svg11.dtd">
<svg width="238pt" height="279pt" viewBox="0 0 238 279" version="1.1" xmlns="http://www.w3.org/2000/svg">
<g id="#010000ff">
<path fill="#010000" opacity="1.00" d=" M 186.13 0.00 L 208.62 0.00 C 215.62 1.42 222.70 2.52 229.58 4.47 C 232.70 5.31 235.61 6.85 238.00 9.04 L 238.00 10.45 C 234.38 14.33 230.03 17.63 227.34 22.29 C 222.26 30.89 220.36 40.94 219.45 50.77 C 218.95 54.82 219.16 58.92 219.62 62.97 C 220.71 78.15 224.29 93.00 228.30 107.64 C 231.12 117.46 234.18 127.27 235.52 137.43 C 238.38 159.45 237.96 182.57 229.38 203.36 C 217.60 235.10 191.40 261.26 159.35 272.35 C 148.05 276.35 136.12 277.82 124.26 279.00 L 104.78 279.00 C 98.26 278.08 91.65 277.87 85.20 276.46 C 76.95 274.71 68.74 272.45 61.05 268.92 C 55.32 266.32 50.64 262.02 45.46 258.55 C 32.11 249.29 21.50 236.45 13.86 222.18 C 8.19 210.80 3.90 198.66 1.92 186.07 C 1.15 181.10 0.77 176.08 0.00 171.10 L 0.00 153.78 C 0.54 149.95 0.98 146.09 1.49 142.25 C 2.74 133.02 5.53 124.02 9.65 115.67 C 13.33 107.86 18.38 100.57 25.00 94.96 C 26.72 93.42 28.66 92.03 29.94 90.06 C 31.37 87.23 31.98 84.08 33.02 81.10 C 35.96 71.66 41.54 63.33 47.46 55.51 C 49.57 52.88 51.79 50.01 55.03 48.72 C 61.94 50.21 65.63 56.85 68.97 62.44 C 73.94 60.16 78.74 57.16 84.21 56.25 C 86.65 55.72 88.17 58.18 88.80 60.16 C 91.40 67.50 91.94 75.39 92.10 83.12 C 98.85 86.51 105.95 89.38 111.95 94.07 C 113.66 95.13 115.25 96.96 117.44 96.76 C 118.30 90.19 117.64 83.53 118.48 76.95 C 119.23 64.86 121.86 52.84 126.71 41.73 C 131.55 31.29 139.08 22.18 148.07 15.04 C 159.02 6.51 172.60 2.26 186.13 0.00 M 170.97 11.94 C 159.78 15.90 149.41 22.70 142.22 32.25 C 134.27 41.83 129.68 53.82 127.80 66.03 C 126.89 71.31 125.84 76.61 125.97 82.00 C 126.08 89.35 125.84 96.70 126.03 104.05 C 125.83 106.99 128.50 108.71 130.47 110.37 C 136.98 115.44 143.71 120.47 151.37 123.67 C 155.26 125.37 159.56 125.50 163.66 126.39 C 165.76 127.46 165.57 130.25 165.41 132.25 C 165.01 139.25 161.22 145.52 156.76 150.72 C 150.07 158.00 141.04 162.64 131.97 166.27 C 131.96 170.48 132.03 174.71 132.49 178.91 C 133.24 185.92 132.95 192.97 133.02 200.01 C 133.18 208.35 132.14 216.67 130.71 224.88 C 128.19 235.94 123.23 246.97 114.20 254.23 C 104.00 262.65 90.30 264.39 77.55 265.16 C 79.34 266.84 81.50 268.07 84.00 268.21 C 91.99 269.22 99.90 271.28 108.01 271.04 C 116.97 270.86 126.04 271.65 134.89 269.80 C 148.05 268.06 161.13 264.37 172.62 257.61 C 195.40 244.93 213.34 223.82 222.32 199.36 C 227.03 187.18 229.59 174.08 229.08 161.00 C 229.45 148.12 227.75 135.21 224.34 122.79 C 218.09 100.98 211.83 78.83 211.19 56.00 C 211.46 44.70 213.23 33.26 217.82 22.85 C 219.58 18.84 222.18 15.29 224.52 11.61 C 218.51 9.60 212.18 8.88 205.91 8.20 C 194.19 7.48 182.10 7.78 170.97 11.94 M 55.31 59.11 C 52.95 61.22 51.29 63.97 49.48 66.53 C 45.04 72.89 41.31 79.85 39.41 87.41 C 38.65 89.97 38.33 92.71 37.09 95.11 C 35.67 97.01 33.62 98.29 31.85 99.83 C 21.29 108.50 14.74 121.16 11.24 134.18 C 6.46 153.06 7.05 173.01 11.11 191.95 C 11.55 194.40 12.91 196.51 14.17 198.59 C 14.58 196.39 14.86 194.17 15.13 191.95 C 16.99 179.10 22.94 166.52 33.08 158.17 C 41.12 151.32 51.43 147.09 62.02 146.80 C 73.03 145.93 83.77 149.05 94.59 150.52 C 109.84 152.09 125.94 152.52 140.29 146.28 C 146.01 143.37 151.92 139.62 154.69 133.56 C 137.06 128.64 123.69 115.43 110.71 103.27 C 100.27 94.75 87.39 88.76 73.86 87.66 C 71.46 87.35 68.99 87.19 66.72 86.28 C 64.72 81.85 65.15 76.80 63.67 72.20 C 62.19 67.47 60.36 62.56 56.74 59.03 C 56.38 59.05 55.67 59.09 55.31 59.11 M 72.09 71.11 C 72.09 73.86 72.78 76.55 73.19 79.26 C 76.48 79.89 79.80 80.43 83.11 81.00 C 83.78 75.80 83.47 70.51 82.12 65.44 C 78.60 66.84 74.43 67.91 72.09 71.11 M 40.70 162.71 C 29.46 170.67 23.08 184.42 22.78 198.02 C 22.60 213.53 29.95 227.97 39.24 239.97 C 39.95 240.04 41.38 240.18 42.09 240.25 C 41.55 236.87 41.01 233.46 41.34 230.03 C 42.31 219.13 45.64 208.17 52.36 199.40 C 58.52 190.62 67.06 183.84 76.09 178.20 C 85.63 172.33 96.20 168.43 106.79 164.92 C 112.04 163.16 118.31 163.15 122.35 158.85 C 117.13 159.06 111.91 159.91 106.69 159.40 C 99.43 158.89 92.17 158.23 85.00 157.01 C 78.68 155.99 72.41 154.45 65.99 154.25 C 57.00 154.53 47.81 157.02 40.70 162.71 M 110.04 173.21 C 108.32 180.51 112.39 188.57 119.07 191.84 C 120.91 192.69 122.94 193.03 124.91 193.48 C 125.36 185.42 124.77 177.37 123.77 169.37 C 119.09 169.85 113.85 170.17 110.04 173.21 M 72.56 190.59 C 63.03 198.00 54.90 207.81 51.40 219.52 C 49.48 225.50 49.86 231.86 49.98 238.04 C 50.13 243.67 52.30 248.96 54.38 254.11 C 58.87 255.04 63.41 255.83 68.00 256.07 C 72.64 256.27 77.24 257.31 81.89 256.79 C 86.54 256.23 91.26 256.01 95.79 254.74 C 103.24 252.61 110.41 248.45 114.74 241.85 C 122.73 230.30 125.35 215.76 124.94 201.94 C 121.85 201.08 118.69 200.42 115.73 199.17 C 110.94 196.97 106.84 193.16 104.61 188.35 C 102.64 184.39 102.11 179.94 101.53 175.62 C 90.91 178.38 81.28 184.06 72.56 190.59 Z" />
</g>
</svg>
