<?xml version="1.0" encoding="UTF-8" ?>
<!DOCTYPE svg PUBLIC "-//W3C//DTD SVG 1.1//EN" "http://www.w3.org/Graphics/SVG/1.1/DTD/svg11.dtd">
<svg width="241pt" height="281pt" viewBox="0 0 241 281" version="1.1" xmlns="http://www.w3.org/2000/svg">
<g id="#000000ff">
<path fill="#000000" opacity="1.00" d=" M 186.89 0.00 L 209.27 0.00 C 217.98 1.54 226.86 2.63 235.20 5.71 C 237.66 6.54 239.34 8.63 241.00 10.51 L 241.00 11.50 C 237.09 15.75 232.22 19.21 229.33 24.30 C 223.57 34.18 221.84 45.76 221.16 57.00 C 221.82 63.87 222.00 70.82 223.45 77.60 C 225.73 92.00 229.78 106.04 233.87 120.02 C 237.63 133.66 239.28 147.86 239.01 162.00 C 239.42 177.27 236.73 192.66 230.82 206.76 C 220.83 232.70 201.22 254.74 176.64 267.70 C 164.94 274.06 151.95 277.75 138.81 279.62 C 134.63 280.06 130.43 280.25 126.30 281.00 L 104.73 281.00 C 99.19 279.87 93.48 280.20 87.96 278.99 C 78.27 277.10 68.60 274.59 59.69 270.27 C 55.09 268.11 51.41 264.56 47.23 261.76 C 33.05 252.43 21.84 239.05 13.83 224.18 C 7.45 211.27 2.77 197.39 1.22 183.03 C 0.95 179.44 0.63 175.85 0.00 172.31 L 0.00 153.78 C 0.38 151.53 0.75 149.27 0.95 146.99 C 1.85 135.37 5.30 123.99 10.65 113.65 C 13.69 107.38 17.96 101.76 22.82 96.80 C 25.77 93.72 30.55 91.77 31.18 87.07 C 34.31 74.00 41.59 62.36 50.22 52.23 C 52.24 49.91 55.47 47.45 58.64 49.12 C 64.37 51.31 67.75 56.69 70.44 61.88 C 75.07 59.42 79.80 56.81 85.05 56.05 C 87.42 55.56 89.89 57.03 90.51 59.38 C 93.30 66.93 94.07 75.10 94.03 83.11 C 98.01 85.10 102.07 86.91 106.01 88.97 C 110.16 91.12 113.91 93.92 117.77 96.54 C 117.76 80.25 118.62 63.62 124.20 48.16 C 128.56 34.78 137.61 23.26 148.59 14.63 C 159.67 6.24 173.28 1.99 186.89 0.00 M 178.08 12.28 C 164.99 16.02 152.48 23.19 144.25 34.24 C 136.87 43.02 132.49 53.94 130.27 65.10 C 129.52 71.07 127.83 76.94 127.98 83.00 C 128.09 90.34 127.83 97.69 128.08 105.02 C 128.12 107.08 130.02 108.28 131.42 109.48 C 138.65 115.20 146.13 120.98 154.86 124.22 C 158.32 125.61 162.09 125.59 165.72 126.20 C 168.62 128.63 167.49 132.71 167.17 135.95 C 166.78 141.20 163.85 145.80 160.96 150.03 C 154.30 158.92 144.06 164.20 133.97 168.27 C 133.98 171.48 134.00 174.71 134.39 177.91 C 135.39 185.90 134.87 193.96 135.01 201.99 C 135.27 210.39 134.01 218.73 132.75 227.00 C 130.23 236.78 126.42 246.80 118.82 253.79 C 112.35 260.64 103.10 263.87 94.07 265.66 C 89.39 266.25 84.68 267.25 79.95 266.53 C 85.74 268.73 92.02 268.84 98.03 270.07 C 102.96 271.11 108.00 271.09 113.00 271.01 C 119.34 270.88 125.74 271.47 132.01 270.26 C 137.68 269.14 143.51 268.81 149.06 267.09 C 167.95 262.33 185.11 251.57 198.46 237.49 C 211.76 223.75 221.08 206.42 226.02 188.00 C 227.97 179.81 229.47 171.45 229.04 163.00 C 229.60 147.88 226.96 132.80 222.54 118.38 C 218.69 105.80 215.86 92.95 213.26 80.07 C 212.10 69.78 210.36 59.41 211.56 49.04 C 212.76 36.48 215.58 23.32 223.72 13.30 C 208.91 9.37 193.03 8.59 178.08 12.28 M 41.58 88.64 C 40.69 91.45 40.41 94.47 39.19 97.17 C 37.05 99.72 33.99 101.28 31.69 103.70 C 22.96 111.74 17.31 122.58 13.89 133.83 C 8.34 153.26 8.95 174.03 13.52 193.58 C 13.90 194.63 14.32 195.66 14.79 196.67 C 14.71 190.19 16.71 183.95 18.89 177.92 C 25.07 161.99 39.98 149.70 56.94 147.21 C 60.30 146.99 63.65 146.62 67.00 146.40 C 72.88 146.94 78.81 147.13 84.57 148.54 C 91.04 149.47 97.44 151.13 104.01 151.05 C 115.23 152.18 126.76 151.22 137.45 147.45 C 144.03 145.03 149.85 140.71 154.30 135.31 C 148.25 133.76 142.54 131.09 137.39 127.56 C 129.06 122.51 122.03 115.73 114.90 109.17 C 106.20 100.35 94.86 94.24 82.91 91.11 C 77.82 89.64 72.45 89.87 67.33 88.62 C 65.66 87.36 65.62 84.97 65.24 83.08 C 64.62 75.19 62.04 67.28 57.04 61.06 C 50.49 69.35 44.41 78.34 41.58 88.64 M 73.95 72.65 C 74.51 74.80 74.92 76.98 75.23 79.17 C 77.83 79.83 80.50 80.20 83.16 80.62 C 83.64 76.33 83.50 71.93 82.10 67.81 C 79.31 69.30 76.55 70.86 73.95 72.65 M 47.58 161.45 C 43.29 164.09 39.17 167.12 35.80 170.89 C 28.82 179.23 24.66 190.04 24.84 200.96 C 25.59 215.56 32.63 229.04 41.58 240.31 C 41.11 236.20 40.94 232.03 41.59 227.93 C 42.74 217.51 46.24 207.14 52.78 198.85 C 56.37 193.85 60.69 189.39 65.57 185.65 C 75.96 177.05 88.31 171.20 101.02 166.91 C 107.28 164.27 114.06 163.32 120.48 161.15 C 116.64 161.22 112.81 161.96 108.97 161.61 C 103.67 161.00 98.33 160.96 93.06 160.14 C 84.29 159.38 75.79 156.79 66.99 156.36 C 60.28 156.65 53.49 158.18 47.58 161.45 M 111.75 174.97 C 111.80 177.94 111.85 181.03 113.25 183.74 C 115.38 188.58 119.92 191.90 124.90 193.39 C 125.46 186.10 124.54 178.86 123.84 171.62 C 119.66 172.01 115.45 172.92 111.75 174.97 M 80.41 188.46 C 68.14 196.36 57.34 207.79 53.24 222.09 C 51.55 227.22 51.95 232.68 51.97 238.00 C 52.04 243.61 54.31 248.86 56.36 253.99 C 63.72 256.15 71.44 255.78 78.95 256.95 C 81.64 257.11 84.27 256.33 86.94 256.17 C 95.55 255.77 104.10 252.50 110.59 246.80 C 119.13 238.12 123.09 225.97 124.43 214.10 C 125.05 210.75 125.10 207.33 124.89 203.94 C 120.47 202.63 115.68 201.93 111.96 198.98 C 104.95 194.41 102.03 185.83 101.65 177.82 C 94.27 180.72 86.94 183.91 80.41 188.46 Z" />
</g>
</svg>
