<?xml version="1.0" encoding="UTF-8" ?>
<!DOCTYPE svg PUBLIC "-//W3C//DTD SVG 1.1//EN" "http://www.w3.org/Graphics/SVG/1.1/DTD/svg11.dtd">
<svg width="506pt" height="489pt" viewBox="0 0 506 489" version="1.1" xmlns="http://www.w3.org/2000/svg">
<g id="#212529ff">
<path fill="#212529" opacity="1.00" d=" M 35.67 57.66 C 39.57 53.76 44.35 50.19 50.01 49.61 C 53.01 49.32 56.32 49.37 58.92 51.12 C 61.87 53.12 63.53 56.59 63.90 60.08 C 64.77 67.99 63.29 76.01 60.47 83.41 C 58.10 89.71 56.53 96.35 53.34 102.31 C 51.99 104.96 49.61 106.81 47.22 108.47 C 48.11 104.56 49.49 100.80 51.12 97.14 C 55.13 88.05 58.20 78.51 59.86 68.71 C 60.21 66.05 60.68 63.17 59.54 60.64 C 58.16 57.62 54.38 56.35 51.30 57.15 C 48.15 57.92 45.70 60.24 43.62 62.61 C 40.18 66.62 37.36 71.13 34.73 75.70 C 29.27 85.40 24.53 95.52 21.04 106.09 C 18.26 114.42 16.78 123.10 15.37 131.74 C 14.03 139.76 14.38 147.92 14.35 156.02 C 14.37 163.59 14.75 171.36 17.47 178.51 C 19.11 182.82 22.12 186.89 26.46 188.72 C 28.90 189.77 31.64 189.07 33.96 188.04 C 37.93 186.22 40.90 182.88 43.59 179.55 C 53.25 167.28 61.44 153.97 69.79 140.80 C 72.60 136.36 74.38 131.39 76.93 126.82 C 78.32 124.22 79.99 121.69 80.62 118.77 C 81.64 114.08 81.48 109.08 83.64 104.69 C 85.20 101.52 87.31 98.24 90.66 96.77 C 93.71 95.74 97.55 95.73 100.07 98.00 C 103.61 101.17 105.75 105.61 106.90 110.16 C 108.56 116.62 109.96 123.26 109.69 129.98 C 109.50 134.62 109.12 139.25 109.01 143.89 C 113.96 144.80 118.99 145.90 124.04 145.33 C 127.68 144.84 130.05 141.63 133.33 140.32 C 134.88 139.90 136.49 139.82 138.08 139.65 C 137.23 145.04 135.11 150.08 133.22 155.17 C 131.27 160.35 130.61 165.92 130.94 171.42 C 134.21 167.52 136.29 162.84 138.19 158.17 C 144.51 143.83 151.34 129.49 161.24 117.22 C 167.28 109.55 175.07 103.46 183.29 98.28 C 187.14 95.78 191.95 94.34 196.50 95.51 C 199.17 96.34 200.71 99.02 201.47 101.54 C 202.81 106.31 202.20 111.39 201.13 116.15 C 199.07 125.04 194.16 132.90 191.43 141.55 C 190.99 143.38 190.09 145.82 192.03 147.12 C 197.22 144.39 199.22 138.19 204.25 135.24 C 207.59 133.32 211.72 132.65 215.46 133.62 C 218.78 134.49 220.63 137.92 221.03 141.12 C 221.57 145.42 220.70 149.72 220.04 153.96 C 218.24 164.06 216.29 174.13 214.21 184.18 C 213.51 188.16 212.64 192.34 213.76 196.33 C 214.33 198.40 216.47 200.15 218.68 199.54 C 223.38 198.24 226.79 194.44 230.09 191.08 C 241.64 178.98 249.37 164.01 257.73 149.69 C 260.64 144.85 262.52 139.40 265.95 134.87 C 267.78 132.07 271.41 132.64 274.28 132.58 C 274.09 141.42 269.46 149.17 267.70 157.67 C 265.58 167.62 263.69 177.77 264.26 188.00 C 264.46 190.23 264.77 192.92 266.84 194.25 C 268.87 195.53 271.37 194.41 272.99 193.00 C 276.47 190.02 278.72 185.94 281.07 182.08 C 288.00 170.17 295.25 158.45 303.17 147.18 C 308.51 139.34 314.99 132.36 321.54 125.54 C 323.81 123.03 327.09 121.98 330.22 120.99 C 330.72 123.59 331.64 126.25 331.09 128.92 C 330.54 131.83 329.42 134.60 328.49 137.40 C 325.96 144.70 324.76 152.37 323.92 160.02 C 323.36 164.97 323.54 169.99 324.41 174.90 C 330.85 166.53 335.56 157.03 341.15 148.10 C 347.93 136.67 356.58 126.15 367.47 118.41 C 371.25 115.66 376.05 113.72 380.75 114.98 C 383.30 115.76 384.27 118.62 384.93 120.94 C 387.01 129.51 384.94 138.32 382.58 146.61 C 379.44 158.57 374.93 170.45 375.10 183.00 C 375.14 188.16 375.08 194.10 378.86 198.11 C 381.15 200.58 385.00 200.27 387.74 198.78 C 393.53 195.78 397.06 190.05 401.35 185.37 C 410.69 174.99 419.41 164.08 428.72 153.68 C 433.35 148.49 435.79 141.70 440.82 136.82 C 443.89 133.82 447.75 131.36 452.08 130.83 C 456.57 130.47 460.95 132.94 463.58 136.49 C 465.32 138.72 465.20 141.69 465.44 144.37 C 463.25 142.16 461.39 139.53 458.67 137.94 C 455.93 137.06 452.93 138.08 450.67 139.69 C 447.34 142.15 445.20 145.83 443.45 149.50 C 440.19 156.51 438.03 164.25 438.58 172.04 C 438.80 174.71 439.46 177.66 441.63 179.45 C 443.92 181.35 447.29 181.18 449.84 179.89 C 453.93 177.82 456.81 174.08 459.49 170.48 C 464.08 164.03 467.95 156.99 470.44 149.46 C 472.38 143.67 471.80 137.15 474.78 131.71 C 475.40 130.17 477.19 130.20 478.58 130.32 C 480.94 131.72 481.20 134.77 481.55 137.22 C 482.13 144.81 481.62 152.44 481.61 160.05 C 481.67 169.42 480.27 178.72 480.17 188.08 C 486.46 182.05 492.01 175.29 498.39 169.35 C 500.43 167.42 502.93 166.07 505.47 164.89 C 504.02 167.81 502.07 170.47 499.67 172.68 C 494.69 177.37 490.12 182.46 485.34 187.35 C 483.14 189.79 480.55 192.18 479.65 195.44 C 478.76 199.25 478.87 203.19 478.71 207.08 C 478.61 213.54 477.79 219.95 477.25 226.38 C 476.25 241.69 474.82 256.97 473.19 272.22 C 472.08 282.60 470.83 293.14 466.93 302.90 C 464.22 309.60 460.23 316.00 454.43 320.44 C 450.43 323.50 445.15 325.29 440.14 324.05 C 435.03 322.88 431.01 318.90 428.65 314.35 C 425.11 307.54 424.27 299.61 425.11 292.05 C 426.40 280.30 430.57 269.09 435.40 258.38 C 443.46 240.87 452.94 223.96 464.47 208.49 C 467.71 204.39 467.66 198.96 467.96 194.01 C 468.47 183.61 469.67 173.25 469.95 162.84 C 466.11 168.37 463.10 174.52 458.41 179.42 C 455.20 182.71 451.26 185.58 446.67 186.48 C 442.64 187.25 438.14 186.75 434.82 184.19 C 431.30 181.55 429.41 177.25 428.90 172.97 C 428.23 167.57 429.16 162.17 429.57 156.79 C 423.14 163.02 418.02 170.41 412.09 177.08 C 404.92 185.26 399.26 194.80 390.96 201.95 C 386.51 205.98 379.62 207.55 374.13 204.78 C 368.79 201.85 365.68 195.90 365.05 189.98 C 363.74 178.94 366.25 167.90 369.40 157.38 C 372.31 147.79 374.98 138.12 377.53 128.42 C 378.43 125.12 378.55 121.69 378.38 118.29 C 374.45 119.79 370.61 121.65 367.37 124.36 C 356.30 133.31 348.51 145.51 341.89 157.94 C 338.51 164.19 335.02 170.39 331.70 176.68 C 330.19 179.40 328.74 182.29 326.31 184.30 C 323.37 186.69 318.60 186.96 315.80 184.23 C 313.74 182.09 313.21 179.02 312.75 176.21 C 311.79 168.71 311.66 161.07 312.79 153.57 C 313.34 149.90 313.76 146.21 313.91 142.49 C 311.08 144.43 308.48 146.73 306.59 149.62 C 298.06 161.95 290.26 174.77 282.76 187.74 C 280.34 191.79 277.60 195.96 273.36 198.31 C 269.71 200.44 264.98 200.86 261.21 198.77 C 256.86 196.47 254.79 191.52 254.07 186.88 C 253.01 179.49 255.16 172.13 255.02 164.72 C 252.36 167.92 250.08 171.41 247.95 174.98 C 242.34 184.37 235.57 193.10 227.64 200.65 C 224.26 203.89 219.90 206.68 215.02 206.32 C 209.52 206.14 204.72 201.87 203.34 196.64 C 201.64 190.57 203.02 184.24 204.25 178.23 C 206.37 168.65 207.93 158.94 210.62 149.49 C 211.35 146.47 212.49 143.39 212.07 140.24 C 211.88 138.02 209.11 137.39 207.40 138.27 C 202.98 140.26 199.81 144.12 196.73 147.73 C 190.50 155.82 184.24 164.26 181.24 174.17 C 180.15 176.94 179.52 180.23 177.10 182.20 C 175.04 182.72 172.90 182.39 170.81 182.31 C 170.66 176.98 170.98 171.59 172.49 166.44 C 176.11 153.64 180.54 141.06 185.85 128.86 C 188.92 121.67 192.33 114.48 193.51 106.69 C 193.86 104.45 193.63 101.26 190.89 100.72 C 185.83 101.39 181.67 104.73 177.71 107.71 C 168.05 115.17 160.50 125.02 154.63 135.66 C 149.10 145.50 144.30 155.74 140.31 166.30 C 138.62 170.41 137.22 174.82 134.19 178.17 C 131.46 181.33 126.24 181.63 123.02 179.06 C 121.08 177.31 120.88 174.48 120.76 172.04 C 120.63 163.87 123.44 156.08 125.41 148.26 C 119.66 148.05 113.92 147.69 108.19 147.14 C 106.97 153.50 106.37 160.04 104.09 166.15 C 102.41 170.61 99.43 174.94 94.88 176.80 C 88.21 179.39 79.76 177.46 75.50 171.52 C 71.16 165.93 70.66 158.62 69.68 151.88 C 64.81 158.45 60.73 165.56 56.63 172.63 C 53.29 178.43 49.91 184.35 45.00 188.99 C 41.09 192.73 36.42 196.24 30.83 196.65 C 23.23 197.67 15.43 194.25 10.65 188.34 C 6.25 182.91 4.10 176.02 3.01 169.21 C -1.53 137.65 5.27 104.74 21.18 77.17 C 25.34 70.22 29.98 63.47 35.67 57.66 M 86.97 104.97 C 84.93 108.06 85.13 111.92 84.92 115.46 C 87.16 116.68 89.54 117.75 91.45 119.47 C 91.20 122.45 89.94 125.21 89.02 128.01 C 92.83 133.19 97.37 137.87 102.90 141.22 C 103.77 133.51 103.83 125.73 103.30 118.00 C 102.94 113.07 101.73 108.12 99.15 103.86 C 97.98 101.99 96.34 100.04 94.00 99.76 C 90.98 100.21 88.59 102.50 86.97 104.97 M 86.41 130.84 C 84.13 136.30 82.24 142.00 81.88 147.95 C 81.42 154.34 81.14 161.43 85.04 166.90 C 86.61 169.17 89.71 171.37 92.48 169.77 C 95.95 167.53 97.30 163.33 98.76 159.68 C 100.36 154.75 102.25 149.66 101.99 144.39 C 100.20 142.63 98.02 141.37 96.02 139.88 C 92.43 137.31 89.52 133.94 86.41 130.84 M 456.52 225.57 C 448.26 238.80 441.11 252.73 435.14 267.14 C 431.17 276.92 428.01 287.38 428.80 298.05 C 429.21 304.48 431.68 311.08 436.70 315.32 C 438.97 317.26 442.24 318.47 445.15 317.27 C 448.99 315.60 451.34 311.84 453.30 308.31 C 459.40 296.83 460.72 283.66 461.80 270.92 C 463.26 251.06 465.24 231.23 466.49 211.35 C 462.71 215.75 459.52 220.61 456.52 225.57 Z" />
<path fill="#212529" opacity="1.00" d=" M 272.71 116.59 C 275.04 116.00 277.48 116.10 279.88 116.03 C 279.62 119.85 280.10 125.03 275.87 126.91 C 273.47 128.69 270.05 126.58 269.74 123.84 C 269.31 121.21 269.89 117.65 272.71 116.59 Z" />
<path fill="#212529" opacity="1.00" d=" M 261.84 259.87 C 265.43 257.67 269.88 257.84 273.92 258.24 C 277.71 258.56 280.40 261.67 282.34 264.65 C 287.34 272.47 288.20 281.95 288.87 290.98 C 289.71 298.92 289.58 306.91 289.90 314.89 C 298.18 315.63 307.87 316.57 314.57 310.58 C 317.25 308.52 319.88 304.80 323.72 305.91 C 326.87 306.35 326.00 310.22 325.47 312.39 C 323.37 319.69 320.48 327.00 321.29 334.77 C 323.57 332.42 325.49 329.73 326.90 326.78 C 330.18 319.98 334.05 313.48 338.26 307.23 C 344.42 298.23 350.83 289.30 358.77 281.75 C 364.11 276.69 370.90 273.08 378.18 271.83 C 383.55 271.03 389.85 274.06 391.31 279.57 C 392.34 283.30 392.25 287.22 392.12 291.05 C 391.60 304.97 386.47 318.08 383.57 331.58 C 380.77 343.51 380.13 355.84 380.56 368.06 C 380.75 371.34 381.32 374.85 383.53 377.43 C 385.46 379.74 388.76 381.06 391.68 379.96 C 397.30 378.03 401.13 372.71 407.17 371.66 C 406.32 374.88 404.92 378.09 402.06 380.02 C 397.21 383.57 391.60 387.43 385.30 386.82 C 378.41 385.34 373.23 379.39 371.06 372.91 C 367.93 363.46 368.20 353.26 369.64 343.53 C 371.60 329.61 376.30 316.31 379.69 302.72 C 381.65 294.53 384.19 286.22 383.28 277.70 C 378.78 277.66 374.04 277.73 370.04 280.06 C 362.90 283.64 358.68 290.69 353.02 296.01 C 345.30 304.34 339.44 314.23 334.25 324.27 C 330.75 330.82 329.12 338.16 325.66 344.71 C 323.79 348.39 319.50 351.31 315.29 350.06 C 312.41 349.29 310.90 346.38 310.57 343.62 C 309.33 334.69 311.10 325.74 312.37 316.92 C 305.09 318.98 297.55 320.19 289.99 319.42 C 288.73 326.36 288.73 333.61 286.17 340.26 C 283.78 346.35 277.99 351.73 271.13 351.49 C 261.56 350.93 253.24 343.75 250.08 334.89 C 247.31 327.81 248.62 320.10 248.63 312.72 C 244.93 314.92 241.53 317.58 237.90 319.88 C 233.68 322.55 228.79 323.78 224.05 325.16 C 221.34 333.51 219.68 342.82 213.36 349.37 C 208.67 354.40 200.12 354.32 194.99 350.01 C 190.95 346.64 188.62 341.63 187.48 336.58 C 185.92 329.62 186.82 322.46 187.45 315.45 C 176.53 322.70 166.55 331.24 155.93 338.92 C 153.65 340.65 151.16 342.22 149.43 344.54 C 148.21 347.89 148.85 351.57 148.93 355.06 C 149.98 368.71 151.16 382.35 151.50 396.05 C 152.06 407.05 153.41 418.40 150.12 429.13 C 146.96 439.09 136.11 444.84 126.09 444.63 C 114.30 443.75 104.16 434.42 100.80 423.32 C 98.35 413.96 99.44 403.87 102.97 394.92 C 109.32 378.20 120.57 363.66 133.91 351.89 C 135.36 350.42 137.24 348.98 137.52 346.79 C 138.10 341.88 137.61 336.92 137.64 331.99 C 137.61 316.30 137.41 300.58 138.79 284.94 C 139.31 279.73 140.16 274.37 142.83 269.78 C 144.90 266.23 148.15 263.14 152.25 262.20 C 156.07 261.32 160.57 261.69 163.52 264.54 C 167.96 268.73 169.95 274.93 170.08 280.93 C 170.58 295.02 166.92 309.08 160.72 321.67 C 160.06 321.72 158.73 321.81 158.06 321.86 C 161.83 308.55 165.68 294.95 165.09 280.97 C 164.77 276.15 163.22 270.70 158.82 268.07 C 156.73 266.73 153.84 267.36 152.49 269.45 C 148.44 275.04 148.32 282.32 148.31 288.95 C 148.52 299.31 147.94 309.66 148.22 320.02 C 148.37 326.40 148.33 332.78 148.43 339.17 C 160.48 330.39 171.55 320.34 183.73 311.73 C 187.09 309.18 190.98 306.89 193.01 303.04 C 194.38 299.88 193.95 296.32 194.13 292.97 C 194.12 286.39 195.30 279.80 197.75 273.70 C 199.10 270.37 201.24 267.06 204.65 265.56 C 208.80 263.64 213.91 264.78 217.23 267.80 C 220.36 270.64 222.11 274.63 223.38 278.57 C 225.31 284.85 226.04 291.43 226.33 297.97 C 226.69 305.77 225.51 313.52 225.07 321.30 C 233.85 319.94 241.44 314.76 247.58 308.57 C 251.51 304.54 253.65 299.08 254.71 293.64 C 255.08 288.27 252.06 283.33 252.20 277.96 C 251.75 270.72 255.82 263.72 261.84 259.87 M 259.67 267.66 C 256.16 273.11 256.72 280.01 258.70 285.90 C 262.77 284.49 266.95 283.40 271.23 282.86 C 271.25 284.39 271.40 285.94 271.19 287.48 C 269.34 290.54 266.27 292.72 264.69 295.98 C 266.58 299.96 270.09 302.82 273.37 305.63 C 276.76 308.50 280.66 310.68 284.70 312.49 C 286.02 301.16 285.45 289.65 283.48 278.43 C 282.40 273.09 280.57 267.41 276.24 263.79 C 271.01 259.86 262.86 262.17 259.67 267.66 M 206.79 270.68 C 204.48 272.22 203.40 274.94 202.46 277.44 C 200.15 284.42 198.86 292.01 200.63 299.27 C 201.87 304.29 202.57 309.82 206.12 313.86 C 209.01 317.33 213.20 319.27 217.20 321.17 C 220.48 310.15 220.52 298.42 218.90 287.12 C 218.06 282.21 217.09 277.04 214.02 272.98 C 212.44 270.82 209.34 269.20 206.79 270.68 M 262.14 301.84 C 259.89 309.99 258.23 318.48 259.06 326.97 C 259.58 332.51 262.18 337.95 266.61 341.41 C 268.80 343.10 271.73 344.29 274.51 343.52 C 277.19 342.71 278.65 340.07 279.64 337.65 C 282.11 331.22 283.33 324.36 283.86 317.51 C 279.60 315.46 275.27 313.43 271.59 310.42 C 268.29 307.72 265.32 304.66 262.14 301.84 M 198.15 313.79 C 195.87 322.91 196.14 332.94 200.58 341.38 C 201.55 343.03 202.87 345.00 205.00 345.05 C 207.09 344.96 208.52 343.18 209.63 341.61 C 212.84 336.66 214.58 330.95 216.24 325.35 C 212.80 324.05 209.25 322.90 206.21 320.78 C 203.29 318.74 200.80 316.17 198.15 313.79 M 122.72 370.71 C 117.19 377.85 112.33 385.59 109.00 394.00 C 106.74 399.68 106.25 405.86 106.22 411.92 C 106.22 417.08 107.37 422.35 110.29 426.69 C 113.30 431.21 117.09 435.93 122.59 437.38 C 127.55 438.48 133.47 438.05 137.18 434.19 C 140.18 431.31 141.11 427.02 141.41 423.03 C 142.39 409.67 141.33 396.29 140.05 382.99 C 139.07 373.52 138.97 363.98 137.96 354.51 C 132.23 359.25 127.30 364.87 122.72 370.71 Z" />
</g>
</svg>
