<?xml version="1.0" encoding="UTF-8"?> <!-- Generator: Adobe Illustrator 22.1.0, SVG Export Plug-In . SVG Version: 6.00 Build 0) --> <svg xmlns="http://www.w3.org/2000/svg" xmlns:xlink="http://www.w3.org/1999/xlink" id="MV_Group" x="0px" y="0px" viewBox="0 0 207.5 36.1" style="enable-background:new 0 0 207.5 36.1;" xml:space="preserve"> <style type="text/css"> .st0{fill:#F7D7E2;} .st1{fill:#F67599;} .st2{fill:#E31C79;} .st3{fill:#AC145A;} </style> <title>MV Group</title> <g id="Layer_1-2"> <path d="M12.1,29.2L4.4,5.1v24.1H0V0.5h7.2l7.2,23.4l7.2-23.4h7.2v28.7h-4.4V5.1l-7.6,24.1H12.1z"></path> <path d="M36.6,0.5l7.6,23.7l7.4-23.7h4.7l-9.8,28.7h-5.1L31.6,0.5H36.6z"></path> <path d="M124.9,9.2h-4.3c-1-3.4-3.6-5.5-7.8-5.5c-5,0-8.7,3.8-8.7,11c0,7.1,3.5,11.2,8.7,11.2c3.6,0,8.1-1.5,8.1-7.1v-0.6h-7.5 v-3.8H125v14.8h-3.5l-0.2-3.5c-1.8,2.7-5,4-8.9,4c-8.2,0-13-6.1-13-14.9S104.6,0,112.9,0C119,0,123.7,3.4,124.9,9.2z"></path> <path d="M140.9,12.1c-0.7-0.1-1.4-0.1-2.1-0.1c-3.2,0-4.8,1.5-4.8,6v11.2h-4V7.9h4v3.8c1-2.4,3.3-3.9,5.9-3.8c0.4,0,0.8,0,1.1,0 L140.9,12.1z"></path> <path d="M162.5,18.6c0,7.7-5.3,11.1-10.4,11.1s-10.3-3.4-10.3-11.1s5.3-11.1,10.3-11.1S162.5,10.9,162.5,18.6z M152.1,26.2 c3.1,0,6-2.4,6-7.6s-2.9-7.6-6-7.6s-6,2.2-6,7.6S149,26.2,152.1,26.2z"></path> <path d="M179,26.2c-1.3,2.3-3.8,3.7-6.5,3.5c-5,0-7-3.1-7-8.3V7.9h4.1v12.4c0,3.1,0.5,5.9,4.2,5.9c3.4,0,5.1-2.6,5.1-6.8V7.9h4.1 v21.3H179V26.2z"></path> <path d="M191.7,7.9V11c1.4-2.3,3.9-3.7,6.6-3.5c4.9,0,9.2,4.2,9.2,11.1s-4.2,11.1-9.2,11.1c-2.7,0.1-5.2-1.2-6.6-3.5v9.9h-4.1V7.9 H191.7z M197.4,26.3c3.4,0,5.7-2.9,5.7-7.7s-2.3-7.6-5.7-7.6c-3.2,0-5.9,2.4-5.9,7.6S194.2,26.3,197.4,26.3L197.4,26.3z"></path> <polygon class="st0" points="76.1,14.9 84.4,29.2 84.4,14.9 "></polygon> <polygon class="st0" points="84.4,0.5 67.8,0.5 72,7.7 "></polygon> <polygon class="st1" points="76.1,14.9 84.4,14.9 84.4,0.5 72,7.7 "></polygon> <polygon class="st2" points="72,7.7 59.6,14.9 67.8,0.5 "></polygon> <polygon class="st2" points="84.4,29.2 92.7,14.9 84.4,14.9 "></polygon> <polygon class="st3" points="92.7,14.9 84.4,0.5 84.4,14.9 "></polygon> <polygon class="st0" points="84.4,29.2 67.8,29.2 59.6,14.9 "></polygon> <polygon class="st2" points="84.4,29.2 59.6,14.9 76.1,14.9 "></polygon> <polygon class="st3" points="76.1,14.9 59.6,14.9 72,7.7 "></polygon> </g> </svg> 